<mxfile host="app.diagrams.net" modified="2021-07-11T09:19:26.682Z" agent="5.0 (Windows NT 10.0; Win64; x64) AppleWebKit/537.36 (KHTML, like Gecko) Chrome/91.0.4472.124 Safari/537.36 Edg/91.0.864.67" etag="Kn7CjlkoNw_Q6J7r_c04" version="14.8.5" type="github">
  <diagram id="PDsKKz8PDmYTPi2qdEaa" name="第 1 页">
    <mxGraphModel dx="1886" dy="818" grid="1" gridSize="10" guides="1" tooltips="1" connect="1" arrows="1" fold="1" page="1" pageScale="1" pageWidth="827" pageHeight="1169" background="none" math="1" shadow="0">
      <root>
        <mxCell id="0" />
        <mxCell id="1" parent="0" />
        <mxCell id="XstM2_aSleSpCCPiyxzG-26" value="" style="ellipse;whiteSpace=wrap;html=1;fontSize=19;" vertex="1" parent="1">
          <mxGeometry x="205" y="1700" width="605" height="360" as="geometry" />
        </mxCell>
        <mxCell id="XstM2_aSleSpCCPiyxzG-5" value="" style="ellipse;whiteSpace=wrap;html=1;fontSize=19;" vertex="1" parent="1">
          <mxGeometry x="185" y="1290" width="420" height="280" as="geometry" />
        </mxCell>
        <mxCell id="v4QgFAhKE0kpH_zX-Cms-4" value="" style="rounded=0;whiteSpace=wrap;html=1;" parent="1" vertex="1">
          <mxGeometry x="70" y="200" width="40" height="150" as="geometry" />
        </mxCell>
        <mxCell id="v4QgFAhKE0kpH_zX-Cms-5" value="s1" style="rounded=0;whiteSpace=wrap;html=1;fontSize=19;" parent="1" vertex="1">
          <mxGeometry x="70" y="270" width="40" height="40" as="geometry" />
        </mxCell>
        <mxCell id="v4QgFAhKE0kpH_zX-Cms-6" value="s2" style="rounded=0;whiteSpace=wrap;html=1;fontSize=19;" parent="1" vertex="1">
          <mxGeometry x="70" y="310" width="40" height="40" as="geometry" />
        </mxCell>
        <mxCell id="v4QgFAhKE0kpH_zX-Cms-8" value="&lt;font style=&quot;font-size: 21px&quot;&gt;main栈区&lt;/font&gt;" style="text;html=1;align=center;verticalAlign=middle;resizable=0;points=[];autosize=1;strokeColor=none;" parent="1" vertex="1">
          <mxGeometry x="40" y="370" width="100" height="20" as="geometry" />
        </mxCell>
        <mxCell id="v4QgFAhKE0kpH_zX-Cms-9" value="" style="ellipse;whiteSpace=wrap;html=1;fontSize=19;" parent="1" vertex="1">
          <mxGeometry x="190" y="90" width="567.5" height="330" as="geometry" />
        </mxCell>
        <mxCell id="v4QgFAhKE0kpH_zX-Cms-14" value="" style="group" parent="1" vertex="1" connectable="0">
          <mxGeometry x="350" y="170" width="240" height="40" as="geometry" />
        </mxCell>
        <mxCell id="v4QgFAhKE0kpH_zX-Cms-10" value="" style="rounded=0;whiteSpace=wrap;html=1;fontSize=19;" parent="v4QgFAhKE0kpH_zX-Cms-14" vertex="1">
          <mxGeometry width="240" height="40" as="geometry" />
        </mxCell>
        <mxCell id="v4QgFAhKE0kpH_zX-Cms-11" value="“王姐姐”" style="rounded=0;whiteSpace=wrap;html=1;fontSize=19;" parent="v4QgFAhKE0kpH_zX-Cms-14" vertex="1">
          <mxGeometry width="80" height="40" as="geometry" />
        </mxCell>
        <mxCell id="v4QgFAhKE0kpH_zX-Cms-12" value="“钟哥哥”" style="rounded=0;whiteSpace=wrap;html=1;fontSize=19;" parent="v4QgFAhKE0kpH_zX-Cms-14" vertex="1">
          <mxGeometry x="80" width="80" height="40" as="geometry" />
        </mxCell>
        <mxCell id="v4QgFAhKE0kpH_zX-Cms-13" value="“李弟弟”" style="rounded=0;whiteSpace=wrap;html=1;fontSize=19;" parent="v4QgFAhKE0kpH_zX-Cms-14" vertex="1">
          <mxGeometry x="160" width="80" height="40" as="geometry" />
        </mxCell>
        <mxCell id="v4QgFAhKE0kpH_zX-Cms-22" value="" style="group" parent="1" vertex="1" connectable="0">
          <mxGeometry x="330" y="260" width="280" height="40" as="geometry" />
        </mxCell>
        <mxCell id="v4QgFAhKE0kpH_zX-Cms-16" value="" style="rounded=0;whiteSpace=wrap;html=1;fontSize=19;" parent="v4QgFAhKE0kpH_zX-Cms-22" vertex="1">
          <mxGeometry width="276" height="40" as="geometry" />
        </mxCell>
        <mxCell id="v4QgFAhKE0kpH_zX-Cms-17" value="null" style="rounded=0;whiteSpace=wrap;html=1;fontSize=19;" parent="v4QgFAhKE0kpH_zX-Cms-22" vertex="1">
          <mxGeometry width="56" height="40" as="geometry" />
        </mxCell>
        <mxCell id="v4QgFAhKE0kpH_zX-Cms-18" value="null" style="rounded=0;whiteSpace=wrap;html=1;fontSize=19;" parent="v4QgFAhKE0kpH_zX-Cms-22" vertex="1">
          <mxGeometry x="56" width="56" height="40" as="geometry" />
        </mxCell>
        <mxCell id="v4QgFAhKE0kpH_zX-Cms-19" value="null" style="rounded=0;whiteSpace=wrap;html=1;fontSize=19;" parent="v4QgFAhKE0kpH_zX-Cms-22" vertex="1">
          <mxGeometry x="112" width="56" height="40" as="geometry" />
        </mxCell>
        <mxCell id="v4QgFAhKE0kpH_zX-Cms-20" value="null" style="rounded=0;whiteSpace=wrap;html=1;fontSize=19;" parent="v4QgFAhKE0kpH_zX-Cms-22" vertex="1">
          <mxGeometry x="168" width="56" height="40" as="geometry" />
        </mxCell>
        <mxCell id="v4QgFAhKE0kpH_zX-Cms-21" value="null" style="rounded=0;whiteSpace=wrap;html=1;fontSize=19;" parent="v4QgFAhKE0kpH_zX-Cms-22" vertex="1">
          <mxGeometry x="224" width="56" height="40" as="geometry" />
        </mxCell>
        <mxCell id="v4QgFAhKE0kpH_zX-Cms-23" style="rounded=0;orthogonalLoop=1;jettySize=auto;html=1;entryX=0;entryY=0.5;entryDx=0;entryDy=0;fontSize=19;verticalAlign=middle;" parent="1" source="v4QgFAhKE0kpH_zX-Cms-5" target="v4QgFAhKE0kpH_zX-Cms-11" edge="1">
          <mxGeometry relative="1" as="geometry" />
        </mxCell>
        <mxCell id="v4QgFAhKE0kpH_zX-Cms-24" style="edgeStyle=none;rounded=0;orthogonalLoop=1;jettySize=auto;html=1;entryX=0;entryY=0.5;entryDx=0;entryDy=0;fontSize=19;verticalAlign=middle;" parent="1" source="v4QgFAhKE0kpH_zX-Cms-6" target="v4QgFAhKE0kpH_zX-Cms-17" edge="1">
          <mxGeometry relative="1" as="geometry" />
        </mxCell>
        <mxCell id="v4QgFAhKE0kpH_zX-Cms-25" value="&lt;span style=&quot;font-size: 27px;&quot;&gt;堆内存&lt;/span&gt;" style="text;html=1;align=center;verticalAlign=middle;resizable=0;points=[];autosize=1;strokeColor=none;fontSize=27;" parent="1" vertex="1">
          <mxGeometry x="414" y="440" width="100" height="40" as="geometry" />
        </mxCell>
        <mxCell id="v4QgFAhKE0kpH_zX-Cms-26" value="数组在内存中的分配示意图" style="text;html=1;strokeColor=none;fillColor=none;align=center;verticalAlign=middle;whiteSpace=wrap;rounded=0;fontSize=21;fontFamily=Times New Roman;" parent="1" vertex="1">
          <mxGeometry x="90" y="520" width="460" height="20" as="geometry" />
        </mxCell>
        <mxCell id="CG9b3yWaQ01aDL8pjVpZ-2" value="" style="rounded=0;whiteSpace=wrap;html=1;" parent="1" vertex="1">
          <mxGeometry x="85" y="740" width="40" height="150" as="geometry" />
        </mxCell>
        <mxCell id="CG9b3yWaQ01aDL8pjVpZ-3" value="s1" style="rounded=0;whiteSpace=wrap;html=1;fontSize=19;" parent="1" vertex="1">
          <mxGeometry x="85" y="810" width="40" height="40" as="geometry" />
        </mxCell>
        <mxCell id="CG9b3yWaQ01aDL8pjVpZ-4" value="s2" style="rounded=0;whiteSpace=wrap;html=1;fontSize=19;" parent="1" vertex="1">
          <mxGeometry x="85" y="850" width="40" height="40" as="geometry" />
        </mxCell>
        <mxCell id="CG9b3yWaQ01aDL8pjVpZ-5" value="&lt;font style=&quot;font-size: 21px&quot;&gt;main栈区&lt;/font&gt;" style="text;html=1;align=center;verticalAlign=middle;resizable=0;points=[];autosize=1;strokeColor=none;" parent="1" vertex="1">
          <mxGeometry x="55" y="910" width="100" height="20" as="geometry" />
        </mxCell>
        <mxCell id="CG9b3yWaQ01aDL8pjVpZ-6" value="" style="ellipse;whiteSpace=wrap;html=1;fontSize=19;" parent="1" vertex="1">
          <mxGeometry x="205" y="630" width="567.5" height="330" as="geometry" />
        </mxCell>
        <mxCell id="CG9b3yWaQ01aDL8pjVpZ-7" value="" style="group" parent="1" vertex="1" connectable="0">
          <mxGeometry x="365" y="710" width="240" height="40" as="geometry" />
        </mxCell>
        <mxCell id="CG9b3yWaQ01aDL8pjVpZ-8" value="" style="rounded=0;whiteSpace=wrap;html=1;fontSize=19;" parent="CG9b3yWaQ01aDL8pjVpZ-7" vertex="1">
          <mxGeometry width="240" height="40" as="geometry" />
        </mxCell>
        <mxCell id="CG9b3yWaQ01aDL8pjVpZ-9" value="“王姐姐”" style="rounded=0;whiteSpace=wrap;html=1;fontSize=19;" parent="CG9b3yWaQ01aDL8pjVpZ-7" vertex="1">
          <mxGeometry width="80" height="40" as="geometry" />
        </mxCell>
        <mxCell id="CG9b3yWaQ01aDL8pjVpZ-10" value="“钟哥哥”" style="rounded=0;whiteSpace=wrap;html=1;fontSize=19;" parent="CG9b3yWaQ01aDL8pjVpZ-7" vertex="1">
          <mxGeometry x="80" width="80" height="40" as="geometry" />
        </mxCell>
        <mxCell id="CG9b3yWaQ01aDL8pjVpZ-11" value="“李弟弟”" style="rounded=0;whiteSpace=wrap;html=1;fontSize=19;" parent="CG9b3yWaQ01aDL8pjVpZ-7" vertex="1">
          <mxGeometry x="160" width="80" height="40" as="geometry" />
        </mxCell>
        <mxCell id="CG9b3yWaQ01aDL8pjVpZ-12" value="" style="group" parent="1" vertex="1" connectable="0">
          <mxGeometry x="345" y="800" width="280" height="40" as="geometry" />
        </mxCell>
        <mxCell id="CG9b3yWaQ01aDL8pjVpZ-13" value="" style="rounded=0;whiteSpace=wrap;html=1;fontSize=19;" parent="CG9b3yWaQ01aDL8pjVpZ-12" vertex="1">
          <mxGeometry width="276" height="40" as="geometry" />
        </mxCell>
        <mxCell id="CG9b3yWaQ01aDL8pjVpZ-14" value="null" style="rounded=0;whiteSpace=wrap;html=1;fontSize=19;" parent="CG9b3yWaQ01aDL8pjVpZ-12" vertex="1">
          <mxGeometry width="56" height="40" as="geometry" />
        </mxCell>
        <mxCell id="CG9b3yWaQ01aDL8pjVpZ-15" value="null" style="rounded=0;whiteSpace=wrap;html=1;fontSize=19;" parent="CG9b3yWaQ01aDL8pjVpZ-12" vertex="1">
          <mxGeometry x="56" width="56" height="40" as="geometry" />
        </mxCell>
        <mxCell id="CG9b3yWaQ01aDL8pjVpZ-16" value="null" style="rounded=0;whiteSpace=wrap;html=1;fontSize=19;" parent="CG9b3yWaQ01aDL8pjVpZ-12" vertex="1">
          <mxGeometry x="112" width="56" height="40" as="geometry" />
        </mxCell>
        <mxCell id="CG9b3yWaQ01aDL8pjVpZ-17" value="null" style="rounded=0;whiteSpace=wrap;html=1;fontSize=19;" parent="CG9b3yWaQ01aDL8pjVpZ-12" vertex="1">
          <mxGeometry x="168" width="56" height="40" as="geometry" />
        </mxCell>
        <mxCell id="CG9b3yWaQ01aDL8pjVpZ-18" value="null" style="rounded=0;whiteSpace=wrap;html=1;fontSize=19;" parent="CG9b3yWaQ01aDL8pjVpZ-12" vertex="1">
          <mxGeometry x="224" width="56" height="40" as="geometry" />
        </mxCell>
        <mxCell id="CG9b3yWaQ01aDL8pjVpZ-19" style="rounded=0;orthogonalLoop=1;jettySize=auto;html=1;fontSize=19;verticalAlign=middle;fillColor=#f8cecc;strokeColor=#b85450;" parent="1" source="CG9b3yWaQ01aDL8pjVpZ-3" edge="1">
          <mxGeometry relative="1" as="geometry">
            <mxPoint x="343.75" y="820" as="targetPoint" />
          </mxGeometry>
        </mxCell>
        <mxCell id="CG9b3yWaQ01aDL8pjVpZ-20" style="edgeStyle=none;rounded=0;orthogonalLoop=1;jettySize=auto;html=1;entryX=0;entryY=1;entryDx=0;entryDy=0;fontSize=19;verticalAlign=middle;" parent="1" source="CG9b3yWaQ01aDL8pjVpZ-4" target="CG9b3yWaQ01aDL8pjVpZ-14" edge="1">
          <mxGeometry relative="1" as="geometry" />
        </mxCell>
        <mxCell id="CG9b3yWaQ01aDL8pjVpZ-21" value="&lt;span style=&quot;font-size: 27px;&quot;&gt;堆内存&lt;/span&gt;" style="text;html=1;align=center;verticalAlign=middle;resizable=0;points=[];autosize=1;strokeColor=none;fontSize=27;" parent="1" vertex="1">
          <mxGeometry x="429" y="980" width="100" height="40" as="geometry" />
        </mxCell>
        <mxCell id="CG9b3yWaQ01aDL8pjVpZ-22" value="数组在内存中的分配示意图" style="text;html=1;strokeColor=none;fillColor=none;align=center;verticalAlign=middle;whiteSpace=wrap;rounded=0;fontSize=21;fontFamily=Times New Roman;" parent="1" vertex="1">
          <mxGeometry x="69" y="1040" width="460" height="20" as="geometry" />
        </mxCell>
        <mxCell id="XstM2_aSleSpCCPiyxzG-1" value="" style="rounded=0;whiteSpace=wrap;html=1;" vertex="1" parent="1">
          <mxGeometry x="65" y="1360" width="40" height="150" as="geometry" />
        </mxCell>
        <mxCell id="XstM2_aSleSpCCPiyxzG-22" style="rounded=0;orthogonalLoop=1;jettySize=auto;html=1;exitX=1;exitY=0.5;exitDx=0;exitDy=0;entryX=0;entryY=0.75;entryDx=0;entryDy=0;fontSize=15;" edge="1" parent="1" source="XstM2_aSleSpCCPiyxzG-3" target="XstM2_aSleSpCCPiyxzG-8">
          <mxGeometry relative="1" as="geometry" />
        </mxCell>
        <mxCell id="XstM2_aSleSpCCPiyxzG-3" value="array" style="rounded=0;whiteSpace=wrap;html=1;fontSize=15;" vertex="1" parent="1">
          <mxGeometry x="65" y="1470" width="40" height="40" as="geometry" />
        </mxCell>
        <mxCell id="XstM2_aSleSpCCPiyxzG-4" value="&lt;font style=&quot;font-size: 21px&quot;&gt;main栈区&lt;/font&gt;" style="text;html=1;align=center;verticalAlign=middle;resizable=0;points=[];autosize=1;strokeColor=none;" vertex="1" parent="1">
          <mxGeometry x="35" y="1530" width="100" height="20" as="geometry" />
        </mxCell>
        <mxCell id="XstM2_aSleSpCCPiyxzG-6" value="" style="group" vertex="1" connectable="0" parent="1">
          <mxGeometry x="265" y="1415" width="240" height="40" as="geometry" />
        </mxCell>
        <mxCell id="XstM2_aSleSpCCPiyxzG-7" value="" style="rounded=0;whiteSpace=wrap;html=1;fontSize=19;" vertex="1" parent="XstM2_aSleSpCCPiyxzG-6">
          <mxGeometry width="240" height="40" as="geometry" />
        </mxCell>
        <mxCell id="XstM2_aSleSpCCPiyxzG-8" value="1" style="rounded=0;whiteSpace=wrap;html=1;fontSize=19;" vertex="1" parent="XstM2_aSleSpCCPiyxzG-6">
          <mxGeometry width="80" height="40" as="geometry" />
        </mxCell>
        <mxCell id="XstM2_aSleSpCCPiyxzG-9" value="2" style="rounded=0;whiteSpace=wrap;html=1;fontSize=19;" vertex="1" parent="XstM2_aSleSpCCPiyxzG-6">
          <mxGeometry x="80" width="80" height="40" as="geometry" />
        </mxCell>
        <mxCell id="XstM2_aSleSpCCPiyxzG-10" value="3" style="rounded=0;whiteSpace=wrap;html=1;fontSize=19;" vertex="1" parent="XstM2_aSleSpCCPiyxzG-6">
          <mxGeometry x="160" width="80" height="40" as="geometry" />
        </mxCell>
        <mxCell id="XstM2_aSleSpCCPiyxzG-20" value="&lt;span style=&quot;font-size: 27px;&quot;&gt;堆内存&lt;/span&gt;" style="text;html=1;align=center;verticalAlign=middle;resizable=0;points=[];autosize=1;strokeColor=none;fontSize=27;" vertex="1" parent="1">
          <mxGeometry x="320" y="1590" width="100" height="40" as="geometry" />
        </mxCell>
        <mxCell id="XstM2_aSleSpCCPiyxzG-25" value="int[] array = {1,2,3};" style="whiteSpace=wrap;html=1;fontSize=23;fillColor=#dae8fc;strokeColor=#6c8ebf;" vertex="1" parent="1">
          <mxGeometry x="35" y="1240" width="260" height="50" as="geometry" />
        </mxCell>
        <mxCell id="XstM2_aSleSpCCPiyxzG-27" value="" style="rounded=0;whiteSpace=wrap;html=1;" vertex="1" parent="1">
          <mxGeometry x="85" y="1830" width="45" height="180" as="geometry" />
        </mxCell>
        <mxCell id="XstM2_aSleSpCCPiyxzG-53" style="edgeStyle=none;rounded=0;orthogonalLoop=1;jettySize=auto;html=1;entryX=0;entryY=0;entryDx=0;entryDy=0;fontSize=16;" edge="1" parent="1" source="XstM2_aSleSpCCPiyxzG-29" target="XstM2_aSleSpCCPiyxzG-34">
          <mxGeometry relative="1" as="geometry" />
        </mxCell>
        <mxCell id="XstM2_aSleSpCCPiyxzG-29" value="" style="rounded=0;whiteSpace=wrap;html=1;fontSize=15;" vertex="1" parent="1">
          <mxGeometry x="85" y="1970" width="45" height="40" as="geometry" />
        </mxCell>
        <mxCell id="XstM2_aSleSpCCPiyxzG-30" value="&lt;font style=&quot;font-size: 21px&quot;&gt;main栈区&lt;/font&gt;" style="text;html=1;align=center;verticalAlign=middle;resizable=0;points=[];autosize=1;strokeColor=none;" vertex="1" parent="1">
          <mxGeometry x="55" y="2040" width="100" height="20" as="geometry" />
        </mxCell>
        <mxCell id="XstM2_aSleSpCCPiyxzG-36" value="&lt;span style=&quot;font-size: 27px;&quot;&gt;堆内存&lt;/span&gt;" style="text;html=1;align=center;verticalAlign=middle;resizable=0;points=[];autosize=1;strokeColor=none;fontSize=27;" vertex="1" parent="1">
          <mxGeometry x="423.75" y="2090" width="100" height="40" as="geometry" />
        </mxCell>
        <mxCell id="XstM2_aSleSpCCPiyxzG-51" style="edgeStyle=none;rounded=0;orthogonalLoop=1;jettySize=auto;html=1;fontSize=16;" edge="1" parent="1" source="XstM2_aSleSpCCPiyxzG-38" target="XstM2_aSleSpCCPiyxzG-44">
          <mxGeometry relative="1" as="geometry" />
        </mxCell>
        <mxCell id="XstM2_aSleSpCCPiyxzG-38" value="" style="rounded=0;whiteSpace=wrap;html=1;fontSize=15;" vertex="1" parent="1">
          <mxGeometry x="85" y="1930" width="45" height="40" as="geometry" />
        </mxCell>
        <mxCell id="XstM2_aSleSpCCPiyxzG-52" style="edgeStyle=none;rounded=0;orthogonalLoop=1;jettySize=auto;html=1;entryX=0;entryY=0.25;entryDx=0;entryDy=0;fontSize=16;" edge="1" parent="1" source="XstM2_aSleSpCCPiyxzG-39" target="XstM2_aSleSpCCPiyxzG-47">
          <mxGeometry relative="1" as="geometry" />
        </mxCell>
        <mxCell id="XstM2_aSleSpCCPiyxzG-39" value="" style="rounded=0;whiteSpace=wrap;html=1;fontSize=15;" vertex="1" parent="1">
          <mxGeometry x="85" y="1890" width="45" height="40" as="geometry" />
        </mxCell>
        <mxCell id="XstM2_aSleSpCCPiyxzG-40" value="&lt;font style=&quot;font-size: 18px&quot;&gt;students&lt;/font&gt;" style="text;html=1;align=center;verticalAlign=middle;resizable=0;points=[];autosize=1;strokeColor=none;fontSize=23;" vertex="1" parent="1">
          <mxGeometry x="5" y="1970" width="80" height="40" as="geometry" />
        </mxCell>
        <mxCell id="XstM2_aSleSpCCPiyxzG-41" value="&lt;span style=&quot;font-size: 18px&quot;&gt;zhong&lt;/span&gt;" style="text;html=1;align=center;verticalAlign=middle;resizable=0;points=[];autosize=1;strokeColor=none;fontSize=23;" vertex="1" parent="1">
          <mxGeometry x="25" y="1930" width="60" height="40" as="geometry" />
        </mxCell>
        <mxCell id="XstM2_aSleSpCCPiyxzG-42" value="&lt;span style=&quot;font-size: 18px&quot;&gt;wang&lt;/span&gt;" style="text;html=1;align=center;verticalAlign=middle;resizable=0;points=[];autosize=1;strokeColor=none;fontSize=23;" vertex="1" parent="1">
          <mxGeometry x="25" y="1890" width="60" height="40" as="geometry" />
        </mxCell>
        <mxCell id="XstM2_aSleSpCCPiyxzG-55" style="edgeStyle=orthogonalEdgeStyle;rounded=0;orthogonalLoop=1;jettySize=auto;html=1;fontSize=16;entryX=1;entryY=0.25;entryDx=0;entryDy=0;fillColor=#e51400;strokeColor=#B20000;" edge="1" parent="1" source="XstM2_aSleSpCCPiyxzG-34" target="XstM2_aSleSpCCPiyxzG-47">
          <mxGeometry relative="1" as="geometry" />
        </mxCell>
        <mxCell id="XstM2_aSleSpCCPiyxzG-34" value="******" style="rounded=0;whiteSpace=wrap;html=1;fontSize=19;" vertex="1" parent="1">
          <mxGeometry x="295" y="1950" width="55" height="40" as="geometry" />
        </mxCell>
        <mxCell id="XstM2_aSleSpCCPiyxzG-43" value="******" style="rounded=0;whiteSpace=wrap;html=1;fontSize=19;" vertex="1" parent="1">
          <mxGeometry x="295" y="1910" width="55" height="40" as="geometry" />
        </mxCell>
        <mxCell id="XstM2_aSleSpCCPiyxzG-44" value="18" style="rounded=0;whiteSpace=wrap;html=1;fontSize=19;" vertex="1" parent="1">
          <mxGeometry x="385" y="1830" width="55" height="40" as="geometry" />
        </mxCell>
        <mxCell id="XstM2_aSleSpCCPiyxzG-46" value="16" style="rounded=0;whiteSpace=wrap;html=1;fontSize=19;" vertex="1" parent="1">
          <mxGeometry x="505" y="1720" width="55" height="40" as="geometry" />
        </mxCell>
        <mxCell id="XstM2_aSleSpCCPiyxzG-47" value="王哈哈" style="rounded=0;whiteSpace=wrap;html=1;fontSize=16;" vertex="1" parent="1">
          <mxGeometry x="505" y="1760" width="55" height="40" as="geometry" />
        </mxCell>
        <mxCell id="XstM2_aSleSpCCPiyxzG-49" value="钟小湖" style="rounded=0;whiteSpace=wrap;html=1;fontSize=16;" vertex="1" parent="1">
          <mxGeometry x="385" y="1870" width="55" height="40" as="geometry" />
        </mxCell>
        <mxCell id="XstM2_aSleSpCCPiyxzG-54" style="edgeStyle=orthogonalEdgeStyle;rounded=0;orthogonalLoop=1;jettySize=auto;html=1;entryX=1;entryY=1;entryDx=0;entryDy=0;fontSize=16;fillColor=#e51400;strokeColor=#B20000;" edge="1" parent="1" source="XstM2_aSleSpCCPiyxzG-43" target="XstM2_aSleSpCCPiyxzG-44">
          <mxGeometry relative="1" as="geometry">
            <Array as="points">
              <mxPoint x="480" y="1930" />
              <mxPoint x="480" y="1870" />
            </Array>
          </mxGeometry>
        </mxCell>
      </root>
    </mxGraphModel>
  </diagram>
</mxfile>
